<?xml version="1.0" encoding="UTF-8" standalone="no"?>
<!-- Created with Inkscape (http://www.inkscape.org/) -->

<svg
   xmlns:dc="http://purl.org/dc/elements/1.1/"
   xmlns:cc="http://creativecommons.org/ns#"
   xmlns:rdf="http://www.w3.org/1999/02/22-rdf-syntax-ns#"
   xmlns:svg="http://www.w3.org/2000/svg"
   xmlns="http://www.w3.org/2000/svg"
   xmlns:sodipodi="http://sodipodi.sourceforge.net/DTD/sodipodi-0.dtd"
   xmlns:inkscape="http://www.inkscape.org/namespaces/inkscape"
   width="24"
   height="24"
   id="svg2"
   version="1.1"
   inkscape:version="0.48.1 r9760"
   sodipodi:docname="New document 1">
  <defs
     id="defs4" />
  <sodipodi:namedview
     id="base"
     pagecolor="#ffffff"
     bordercolor="#666666"
     borderopacity="1.0"
     inkscape:pageopacity="0.0"
     inkscape:pageshadow="2"
     inkscape:zoom="1"
     inkscape:cx="10.580583"
     inkscape:cy="12.82932"
     inkscape:document-units="px"
     inkscape:current-layer="layer1"
     showgrid="false"
     inkscape:window-width="1280"
     inkscape:window-height="695"
     inkscape:window-x="0"
     inkscape:window-y="0"
     inkscape:window-maximized="0" />
  <metadata
     id="metadata7">
    <rdf:RDF>
      <cc:Work
         rdf:about="">
        <dc:format>image/svg+xml</dc:format>
        <dc:type
           rdf:resource="http://purl.org/dc/dcmitype/StillImage" />
        <dc:title></dc:title>
      </cc:Work>
    </rdf:RDF>
  </metadata>
  <g
     inkscape:label="Layer 1"
     inkscape:groupmode="layer"
     id="layer1"
     transform="translate(0,-1028.3622)">
    <g
       id="g3029"
       style="stroke:#333333;fill:#666666">
      <path
         style="fill:#333333;stroke:#1a1a1a;stroke-opacity:1"
         d="m 4.6875,7.5625 c -0.277,0 -0.5,0.223 -0.5,0.5 0,0 -0.01621,2.797604 0,3.743068 -0.6025083,-0.0047 -1.5233991,0.0069 -2.125,0.0069 -0.277,0 -0.5,0.223 -0.5,0.5 l 0,1.9375 c 0,0.277 0.223,0.5 0.5,0.5 l 20,0 c 0.277,0 0.5,-0.223 0.5,-0.5 l 0,-1.9375 c 0,-0.277 -0.223,-0.5 -0.5,-0.5 -3.990624,0.0019 -9.370991,-0.06449 -12.875,-0.02903 l 0,-3.720971 c 0,-0.277 -0.223,-0.5 -0.5,-0.5 z"
         transform="translate(0,1028.3622)"
         id="rect2985"
         inkscape:connector-curvature="0"
         sodipodi:nodetypes="ssccssssssccsss" />
    </g>
    <path
       sodipodi:type="arc"
       style="fill:#666666;stroke:#000000;stroke-opacity:1"
       id="path2993"
       sodipodi:cx="3.5625"
       sodipodi:cy="17.4375"
       sodipodi:rx="1.4375"
       sodipodi:ry="1.3125"
       d="m 5,17.4375 a 1.4375,1.3125 0 1 1 -2.875,0 1.4375,1.3125 0 1 1 2.875,0 z"
       transform="translate(0,1028.3622)" />
    <path
       transform="translate(8.5,1028.3622)"
       d="m 5,17.4375 a 1.4375,1.3125 0 1 1 -2.875,0 1.4375,1.3125 0 1 1 2.875,0 z"
       sodipodi:ry="1.3125"
       sodipodi:rx="1.4375"
       sodipodi:cy="17.4375"
       sodipodi:cx="3.5625"
       id="path3019"
       style="fill:#666666;stroke:#000000;stroke-opacity:1"
       sodipodi:type="arc" />
    <path
       sodipodi:type="arc"
       style="fill:#666666;stroke:#000000;stroke-opacity:1"
       id="path3021"
       sodipodi:cx="3.5625"
       sodipodi:cy="17.4375"
       sodipodi:rx="1.4375"
       sodipodi:ry="1.3125"
       d="m 5,17.4375 a 1.4375,1.3125 0 1 1 -2.875,0 1.4375,1.3125 0 1 1 2.875,0 z"
       transform="translate(12.9,1028.3622)" />
    <path
       transform="translate(17.3,1028.3622)"
       d="m 5,17.4375 a 1.4375,1.3125 0 1 1 -2.875,0 1.4375,1.3125 0 1 1 2.875,0 z"
       sodipodi:ry="1.3125"
       sodipodi:rx="1.4375"
       sodipodi:cy="17.4375"
       sodipodi:cx="3.5625"
       id="path3023"
       style="fill:#666666;stroke:#000000;stroke-opacity:1"
       sodipodi:type="arc" />
    <path
       sodipodi:type="star"
       style="fill:#ff0000;stroke:#ffff00;stroke-opacity:1"
       id="path3027"
       sodipodi:sides="3"
       sodipodi:cx="10.625"
       sodipodi:cy="10.1875"
       sodipodi:r1="3.2173843"
       sodipodi:r2="1.608692"
       sodipodi:arg1="-0.42019671"
       sodipodi:arg2="0.62700084"
       inkscape:flatsided="false"
       inkscape:rounded="0"
       inkscape:randomized="0"
       d="M 13.5625,8.875 11.927704,11.13135 10.292908,13.3877 9.1562501,10.84375 8.0195917,8.2998004 10.791046,8.5874003 z"
       transform="matrix(0.97969042,0.80956332,-1.3663895,0.58707135,19.430852,1022.8233)"
       inkscape:transform-center-x="-0.15946369"
       inkscape:transform-center-y="-0.9082354" />
  </g>
</svg>
