<?xml version="1.0" encoding="UTF-8" standalone="no"?>
<!-- Created with Inkscape (http://www.inkscape.org/) -->

<svg
   xmlns:dc="http://purl.org/dc/elements/1.1/"
   xmlns:cc="http://creativecommons.org/ns#"
   xmlns:rdf="http://www.w3.org/1999/02/22-rdf-syntax-ns#"
   xmlns:svg="http://www.w3.org/2000/svg"
   xmlns="http://www.w3.org/2000/svg"
   xmlns:sodipodi="http://sodipodi.sourceforge.net/DTD/sodipodi-0.dtd"
   xmlns:inkscape="http://www.inkscape.org/namespaces/inkscape"
   width="24"
   height="24"
   id="svg3270"
   version="1.1"
   inkscape:version="0.48.1 r9760"
   inkscape:export-filename="/Users/parkovski/Projects/tsched/images/notes.png"
   inkscape:export-xdpi="90"
   inkscape:export-ydpi="90"
   sodipodi:docname="New document 15">
  <defs
     id="defs3272" />
  <sodipodi:namedview
     id="base"
     pagecolor="#ffffff"
     bordercolor="#666666"
     borderopacity="1.0"
     inkscape:pageopacity="0.0"
     inkscape:pageshadow="2"
     inkscape:zoom="16"
     inkscape:cx="7.5"
     inkscape:cy="13.256934"
     inkscape:document-units="px"
     inkscape:current-layer="layer1"
     showgrid="false"
     inkscape:window-width="1048"
     inkscape:window-height="631"
     inkscape:window-x="40"
     inkscape:window-y="40"
     inkscape:window-maximized="0" />
  <metadata
     id="metadata3275">
    <rdf:RDF>
      <cc:Work
         rdf:about="">
        <dc:format>image/svg+xml</dc:format>
        <dc:type
           rdf:resource="http://purl.org/dc/dcmitype/StillImage" />
        <dc:title></dc:title>
      </cc:Work>
    </rdf:RDF>
  </metadata>
  <g
     inkscape:label="Layer 1"
     inkscape:groupmode="layer"
     id="layer1"
     transform="translate(0,-1028.3622)">
    <flowRoot
       xml:space="preserve"
       id="flowRoot3282"
       style="font-size:8px;font-style:normal;font-weight:normal;line-height:125%;letter-spacing:0px;word-spacing:0px;fill:#000000;fill-opacity:1;stroke:none;font-family:Sans"
       transform="translate(0,1028.3622)"><flowRegion
         id="flowRegion3284"><rect
           id="rect3286"
           width="38.75"
           height="30.625"
           x="-4.1875"
           y="-1" /></flowRegion><flowPara
         id="flowPara3288">OVERSIZE</flowPara><flowPara
         id="flowPara3290" /></flowRoot>    <path
       transform="translate(0,1028.3622)"
       style="fill:#f2f2f2;stroke:#000000;stroke-opacity:1"
       d="m 2.8125,1.5 13.8125,0 1.875,2.8125 2.6875,1.5 0,16.9375 -18.375,0 z"
       id="rect3316"
       inkscape:connector-curvature="0"
       sodipodi:nodetypes="ccccccc" />
    <path
       style="fill:none;stroke:#000000;stroke-width:1px;stroke-linecap:butt;stroke-linejoin:miter;stroke-opacity:1"
       d="M 5.125,4.5 C 5.208333,4.479167 5.2916667,4.458333 5.375,4.4375 5.458333,4.416667 5.5397653,4.385654 5.625,4.375 5.62998,4.3743778 6.0112988,4.3878 6.0625,4.375 6.107694,4.363702 6.141383,4.319088 6.1875,4.3125 6.2906197,4.297769 6.3961932,4.32115 6.5,4.3125 6.6468051,4.300266 6.79062,4.261298 6.9375,4.25 c 0.2284917,-0.017576 0.4583333,0 0.6875,0 0.375,0 0.75,0 1.125,0 0.125,0 0.2506204,0.012438 0.375,0 0.085472,-0.00855 0.1647653,-0.051846 0.25,-0.0625 0.1358181,-0.016977 0.2970749,0 0.4375,0 0.052337,0 0.264971,-0.011882 0.3125,0 0.09039,0.022597 0.163494,0.090398 0.25,0.125 0.122338,0.048935 0.252662,0.076065 0.375,0.125 0.04325,0.017301 0.08175,0.045199 0.125,0.0625 0.06117,0.024468 0.126331,0.038032 0.1875,0.0625 0.04325,0.017301 0.07981,0.051202 0.125,0.0625 0.04042,0.010106 0.0839,-0.00685 0.125,0 0.08473,0.014121 0.164765,0.051846 0.25,0.0625 0.08269,0.010336 0.166667,0 0.25,0 0.104167,0 0.208333,0 0.3125,0 0.166667,0 0.333333,0 0.5,0 0.08333,0 0.16708,0.00829 0.25,0 1.006944,-0.167824 -0.253448,0.021121 0.75,-0.0625 0.126286,-0.010524 0.248796,-0.051027 0.375,-0.0625 0.18673,-0.016976 0.376884,0.026516 0.5625,0 C 14.62772,4.55318 14.685016,4.510831 14.75,4.5 c 0.06165,-0.010275 0.125,0 0.1875,0 0.166667,0 0.333333,0 0.5,0 0.0625,0 0.126214,0.012257 0.1875,0 0.04568,-0.00914 0.07905,-0.054842 0.125,-0.0625 0.164399,-0.0274 0.33462,0.020672 0.5,0 0.415802,-0.051975 0.107762,-0.03592 0.375,-0.125 0.03526,-0.011754 0.146431,0 0.1875,0"
       id="path3318"
       inkscape:connector-curvature="0"
       transform="translate(0,1028.3622)" />
    <path
       style="fill:none;stroke:#000000;stroke-width:1px;stroke-linecap:butt;stroke-linejoin:miter;stroke-opacity:1"
       d="M 5.5,8.375 C 6.4611053,8.2148158 5.3983088,8.4297304 6.125,8.1875 6.2879801,8.1331733 6.4594714,8.1084802 6.625,8.0625 6.8345713,8.0042858 7.0436553,7.9437816 7.25,7.875 7.9330645,7.6473118 7.5558817,7.7112396 8.25,7.5625 8.701499,7.4657502 8.71035,7.5 9.25,7.5 c 0.2083333,0 0.4166667,0 0.625,0 0.166667,0 0.334795,-0.022027 0.5,0 0.150339,0.020045 0.289198,0.093221 0.4375,0.125 1.697726,0.3637984 -1.0102545,-0.322869 0.9375,0.25 0.184269,0.054197 0.375532,0.081008 0.5625,0.125 0.167229,0.039348 0.330202,0.098877 0.5,0.125 0.102955,0.015839 0.20864,-0.00799 0.3125,0 0.334938,0.025764 0.66459,0.1063661 1,0.125 0.353621,0.019646 0.708333,0 1.0625,0 0.166667,0 0.335008,0.02357 0.5,0 0.130437,-0.018634 0.246163,-0.097392 0.375,-0.125 0.164235,-0.035193 0.335765,-0.027307 0.5,-0.0625 0.257674,-0.055216 0.495762,-0.1806625 0.75,-0.25 0.829623,-0.2262609 -0.06892,0.06464 0.5,-0.125"
       id="path3320"
       inkscape:connector-curvature="0"
       transform="translate(0,1028.3622)" />
    <path
       style="fill:none;stroke:#000000;stroke-width:1px;stroke-linecap:butt;stroke-linejoin:miter;stroke-opacity:1"
       d="m 6.4375,11.5625 c 0.2916667,0 0.5833333,0 0.875,0 0.1458333,0 0.2919183,0.0086 0.4375,0 0.2090111,-0.01229 0.4158646,-0.05254 0.625,-0.0625 0.2289073,-0.0109 0.4588764,0.01577 0.6875,0 0.3764136,-0.02596 0.748528,-0.0999 1.125,-0.125 0.249446,-0.01663 0.500236,0.01086 0.75,0 0.229894,-0.01 0.458253,-0.04257 0.6875,-0.0625 0.249923,-0.02173 0.499689,-0.04581 0.75,-0.0625 0.374746,-0.02498 0.749661,-0.04909 1.125,-0.0625 0.353941,-0.01264 0.708333,0 1.0625,0 0.25,0 0.5,0 0.75,0 0.270833,0 0.542685,-0.02346 0.8125,0 0.21166,0.0184 0.415011,0.09269 0.625,0.125 0.06177,0.0095 0.125382,-0.0069 0.1875,0 0.125949,0.01399 0.248598,0.05347 0.375,0.0625 0.270145,0.0193 0.541667,0 0.8125,0 0.145833,0 0.291667,0 0.4375,0 0.145833,0 0.293651,0.02398 0.4375,0 0.158584,-0.02643 0.411813,-0.18542 0.5625,-0.25 0.162146,-0.06949 0.215801,-0.0625 0.375,-0.0625"
       id="path3322"
       inkscape:connector-curvature="0"
       transform="translate(0,1028.3622)" />
    <path
       style="fill:none;stroke:#000000;stroke-width:1px;stroke-linecap:butt;stroke-linejoin:miter;stroke-opacity:1"
       d="M 5.3125,15.3125 C 5.4583333,15.29167 5.6041667,15.27083 5.75,15.25 c 0.125,-0.04167 0.2450312,-0.103339 0.375,-0.125 0.1232992,-0.02055 0.2503177,0.0089 0.375,0 0.1675369,-0.01197 0.3323634,-0.05202 0.5,-0.0625 0.1663421,-0.0104 0.3333333,0 0.5,0 0.2916667,0 0.5833333,0 0.875,0 0.5208333,0 1.0416667,0 1.5625,0 0.125,0 0.250432,-0.01038 0.375,0 0.126286,0.01052 0.249051,0.04851 0.375,0.0625 0.06212,0.0069 0.125483,-0.0078 0.1875,0 0.105409,0.01318 0.206707,0.05288 0.3125,0.0625 0.124487,0.01132 0.25,0 0.375,0 0.25,0 0.5,0 0.75,0 0.145833,0 0.291667,0 0.4375,0 0.166667,0 0.333658,0.0104 0.5,0 0.167637,-0.01048 0.333333,-0.04167 0.5,-0.0625 0.166667,-0.02083 0.333989,-0.03696 0.5,-0.0625 0.104994,-0.01615 0.212666,-0.0262 0.3125,-0.0625 0.302933,-0.110158 0.386356,-0.196017 0.625,-0.375 0.29714,-0.222855 0.176343,-0.113843 0.375,-0.3125 0.02083,-0.02083 0.03615,-0.04932 0.0625,-0.0625 0.01863,-0.0093 0.05318,0.01863 0.0625,0 0.05962,-0.119247 -0.07162,-0.120439 0.0625,-0.1875 0.01401,-0.007 0.235148,0 0.25,0 0.145833,0 0.291667,0 0.4375,0"
       id="path3324"
       inkscape:connector-curvature="0"
       transform="translate(0,1028.3622)" />
    <path
       style="fill:none;stroke:#000000;stroke-width:1px;stroke-linecap:butt;stroke-linejoin:miter;stroke-opacity:1"
       d="m 6.1875,18.75 c 0.1666667,-0.02083 0.3363376,-0.02473 0.5,-0.0625 0.2186357,-0.05045 0.4085245,-0.190961 0.625,-0.25 0.1222589,-0.03334 0.2510888,-0.03595 0.375,-0.0625 0.1679826,-0.036 0.3305414,-0.09676 0.5,-0.125 0.2065237,-0.03442 0.416778,-0.04058 0.625,-0.0625 0.1876173,-0.01975 0.3751383,-0.04046 0.5625,-0.0625 0.1668133,-0.01963 0.3322685,-0.05367 0.5,-0.0625 0.22885,-0.01205 0.458333,0 0.6875,0 0.1875,0 0.375,0 0.5625,0 0.145833,0 0.291667,0 0.4375,0 0.145833,0 0.292096,-0.01119 0.4375,0 1.139215,0.08763 -0.0024,-5.96e-4 0.5,0.125 0.122941,0.03073 0.25,0.04167 0.375,0.0625 0.125,0.02083 0.249749,0.04323 0.375,0.0625 0.145601,0.0224 0.291667,0.04167 0.4375,0.0625 0.145833,0.02083 0.29062,0.0512 0.4375,0.0625 0.124632,0.0096 0.25,0 0.375,0 0.145833,0 0.291667,0 0.4375,0 0.166667,0 0.334475,0.01947 0.5,0 0.190758,-0.02244 0.375532,-0.08101 0.5625,-0.125 0.334458,-0.0787 0.669628,-0.155608 1,-0.25 0.126692,-0.0362 0.25,-0.08333 0.375,-0.125"
       id="path3326"
       inkscape:connector-curvature="0"
       transform="translate(0,1028.3622)" />
    <path
       style="fill:#f2f2f2;stroke:#000000;stroke-opacity:1"
       d="m 16.9375,1029.9872 2.0625,2.0625 2.0625,1.9375 -4.125,0 z"
       id="rect3328"
       inkscape:connector-curvature="0"
       sodipodi:nodetypes="ccccc" />
  </g>
</svg>
